<svg width="630" height="173" viewBox="0 0 630 173" fill="none" xmlns="http://www.w3.org/2000/svg">
<path d="M23.7546 0C36.6144 0 45.1654 6.84164 46.4957 17.8632H34.3961C33.3826 13.0487 29.0115 10.6415 23.8813 10.6415C17.103 10.6415 12.0985 14.3791 12.0985 22.9311C12.0985 31.5465 17.103 35.2841 23.8813 35.2841C29.0115 35.2841 33.3826 32.8135 34.3961 27.999H46.4957C45.1654 39.085 36.6144 45.9256 23.7546 45.9256C9.12219 45.9266 0 35.9809 0 22.9311C0 9.88131 9.12219 0 23.7546 0ZM73.6722 0C88.2424 0 97.1745 9.94572 97.1745 22.9311C97.1745 35.9165 88.2424 45.9256 73.6722 45.9256C59.1021 45.9256 50.1087 35.9799 50.1087 22.9311C50.1087 9.88237 59.0398 0 73.6722 0ZM73.6722 35.2841C81.274 35.2841 85.075 30.7863 85.075 22.9311C85.075 15.1392 81.274 10.6415 73.6722 10.6415C66.0704 10.6415 62.2072 15.1392 62.2072 22.9311C62.2072 30.7863 66.0715 35.2841 73.6722 35.2841ZM102.245 0.633485H125.999L130.053 42.3158H133.031L137.085 0.633485H160.84V45.2921H148.74V10.9593L151.021 3.61087H148.107L143.229 45.2931H119.854L114.977 3.61087H111.999L114.344 10.9593V45.2931H102.245V0.633485ZM166.353 0.633485H190.108L194.162 42.3158H197.14L201.194 0.633485H224.949V45.2921H212.849V10.9593L215.129 3.61087H212.215L207.338 45.2931H183.963L179.085 3.61087H176.108L178.453 10.9593V45.2931H166.353V0.633485ZM229.828 0.633485H241.928V22.7411C241.928 30.2795 241.611 35.283 250.924 35.283C260.236 35.283 260.046 30.2785 260.046 22.7411V0.633485H272.145V28.6958C272.145 39.8452 264.606 45.9256 250.924 45.9256C237.241 45.9256 229.83 39.8441 229.83 28.6958V0.633485H229.828ZM277.023 0.633485H300.778L310.723 42.3158H313.7L311.356 34.9673V0.633485H323.519V45.2921H299.701L289.755 3.60981H286.778L289.123 10.9582V45.2921H277.023V0.633485ZM350.633 11.276V34.6506H360.831V45.2931H328.335V34.6506H338.533V11.276H328.335V0.633485H360.831V11.276H350.633ZM386.046 0C398.906 0 407.457 6.84164 408.787 17.8632H396.687C395.674 13.0487 391.303 10.6415 386.173 10.6415C379.394 10.6415 374.39 14.3791 374.39 22.9311C374.39 31.5465 379.394 35.2841 386.173 35.2841C391.303 35.2841 395.674 32.8135 396.687 27.999H408.787C407.457 39.085 398.906 45.9256 386.046 45.9256C371.413 45.9256 362.291 35.9799 362.291 22.9311C362.291 9.88237 371.412 0 386.046 0ZM442.425 32.2433H424.308L420.888 45.2921H408.599L420.824 0.633485H445.846L458.135 45.2921H445.846L442.425 32.2433ZM439.574 21.6008L434.824 3.60981H431.847L427.096 21.6008H439.574ZM493.041 11.276H478.788V45.2931H466.689V11.276H452.436V0.633485H493.041V11.276ZM519.71 11.276V34.6506H529.908V45.2931H497.413V34.6506H507.611V11.276H497.413V0.633485H529.908V11.276H519.71ZM554.933 0C569.503 0 578.435 9.94572 578.435 22.9311C578.435 35.9165 569.503 45.9256 554.933 45.9256C540.363 45.9256 531.37 35.9799 531.37 22.9311C531.37 9.88237 540.301 0 554.933 0ZM554.933 35.2841C562.535 35.2841 566.336 30.7863 566.336 22.9311C566.336 15.1392 562.535 10.6415 554.933 10.6415C547.331 10.6415 543.468 15.1392 543.468 22.9311C543.468 30.7863 547.332 35.2841 554.933 35.2841ZM583.504 0.633485H607.259L617.205 42.3158H620.181L617.837 34.9673V0.633485H630V45.2921H606.182L596.236 3.60981H593.259L595.604 10.9582V45.2921H583.504V0.633485ZM39.5622 91.1575H21.6356L16.061 108.641H10.8664L25.3098 63.982H35.9524L50.3315 108.641H45.2013L39.5622 91.1575ZM38.1675 86.7231L31.3269 65.439H29.8699L23.0916 86.7231H38.1675ZM56.4763 63.982H66.9277L89.2253 107.184H90.6824L89.8599 103.446V63.982H94.9901V108.641H84.5386L62.3033 65.439H60.8463L61.6698 69.1766V108.641H56.4752L56.4763 63.982ZM140.093 86.2796C140.093 105.537 128.565 108.641 117.732 108.641H103.543V63.982H117.732C128.565 63.982 140.093 67.0861 140.093 86.2796ZM134.9 86.2796C134.9 69.8101 125.652 68.4164 117.733 68.4164H108.738V104.207H117.733C125.652 104.207 134.9 102.813 134.9 86.2796ZM168.601 63.982H192.356L196.41 105.664H199.387L203.442 63.982H227.196V108.641H215.097V74.3068L217.377 66.9583H214.463L209.585 108.641H186.211L181.333 66.9583H178.356L180.701 74.3068V108.641H168.601V63.982ZM232.077 63.982H244.177V86.0896C244.177 93.6281 243.86 98.6315 253.172 98.6315C262.485 98.6315 262.295 93.627 262.295 86.0896V63.982H274.394V92.0444C274.394 103.194 266.856 109.274 253.172 109.274C239.489 109.274 232.078 103.193 232.078 92.0444V63.982H232.077ZM279.272 103.32V63.982H291.372V98.6326L312.782 97.9991V108.642L285.353 109.275C281.426 109.339 279.272 107.248 279.272 103.32ZM345.787 74.6246H331.535V108.642H319.435V74.6246H305.183V63.982H345.787V74.6246ZM372.458 74.6246V97.9991H382.656V108.642H350.16V97.9991H360.358V74.6246H350.16V63.982H382.656V74.6246H372.458ZM387.535 63.982H411.289L415.344 105.664H418.321L422.375 63.982H446.13V108.641H434.03V74.3068L436.311 66.9583H433.397L428.519 108.641H405.144L400.267 66.9583H397.289L399.634 74.3068V108.641H387.535V63.982ZM451.643 63.982H485.154V74.6246H463.743V80.9594H481.986V91.602H463.743V98.0002H485.154V108.643H451.643V63.9841V63.982ZM532.727 86.2796C532.727 105.537 519.931 108.641 507.579 108.641H490.223V63.982H507.579C519.931 63.982 532.727 67.0861 532.727 86.2796ZM520.565 86.2796C520.565 74.9413 515.498 74.6235 507.579 74.6235H502.322V97.9981H507.579C515.498 97.9981 520.565 97.6824 520.565 86.2796ZM557.308 74.6246V97.9991H567.506V108.642H535.01V97.9991H545.208V74.6246H535.01V63.982H567.506V74.6246H557.308ZM605.134 95.5919H587.017L583.596 108.641H571.308L583.533 63.982H608.555L620.844 108.641H608.555L605.134 95.5919ZM602.284 84.9493L597.533 66.9583H594.555L589.804 84.9493H602.284ZM225.013 149.628C225.013 168.885 212.217 171.989 199.865 171.989H182.508V127.331H199.865C212.217 127.331 225.013 130.435 225.013 149.628ZM212.851 149.628C212.851 138.29 207.783 137.972 199.865 137.972H194.608V161.347H199.865C207.783 161.347 212.851 161.031 212.851 149.628ZM230.019 127.331H263.528V137.973H242.118V144.308H260.361V154.95H242.118V161.349H263.528V171.991H230.019V127.333V127.331ZM288.933 172.624C272.652 172.624 266.065 166.162 266.065 154.569H278.163C278.163 159.954 280.635 161.981 289.376 161.981C295.458 161.981 296.725 161.094 296.725 159.637C296.725 157.483 292.227 156.153 285.955 153.937C276.263 150.579 268.092 147.982 268.092 138.86C268.092 130.941 274.554 126.697 286.335 126.697C300.209 126.697 306.987 133.222 306.987 142.724H294.887C294.887 138.163 291.277 137.34 286.335 137.34C282.408 137.34 280.191 137.91 280.191 139.367C280.191 140.634 280.127 140.887 287.222 143.358C295.267 146.145 308.823 149.883 308.823 159.257C308.823 167.366 302.868 172.624 288.933 172.624ZM333.846 137.973V161.348H344.044V171.99H311.548V161.348H321.746V137.973H311.548V127.331H344.044V137.973H333.846ZM368.562 126.697C379.773 126.697 389.402 133.539 390.733 143.294H378.634C377.62 138.86 374.453 137.34 368.562 137.34C361.783 137.34 357.602 140.254 357.602 149.629C357.602 159.067 361.023 161.982 367.231 161.982C372.173 161.982 375.719 159.828 375.783 155.647H367.548V146.652H391.43C395.23 146.652 397.447 148.869 397.447 152.797V171.99H385.284V157.103L387.629 149.628H384.651C384.588 162.995 379.267 172.623 366.725 172.623C353.232 172.623 345.504 163.5 345.504 149.628C345.504 135.756 355.64 126.697 368.562 126.697ZM401.63 127.331H425.384L435.33 169.013H438.306L435.962 161.664V127.331H448.125V171.989H424.307L414.362 130.307H411.384L413.729 137.655V171.989H401.63V127.331Z" fill="url(#paint0_linear_16_199)"/>
<defs>
<linearGradient id="paint0_linear_16_199" x1="0" y1="86.3118" x2="630" y2="86.3118" gradientUnits="userSpaceOnUse">
<stop stop-color="#FFED00"/>
<stop offset="1" stop-color="#FFF042" stop-opacity="0.4"/>
</linearGradient>
</defs>
</svg>
