<svg width="67" height="67" viewBox="0 0 67 67" fill="none" xmlns="http://www.w3.org/2000/svg">
<path d="M65.9608 33.5395C59.5228 37.1254 58.7904 40.548 63.3945 46.1716C56.1488 46.7723 54.2395 49.5743 56.4254 56.4812C49.5238 54.2786 46.7173 56.1808 46.0989 63.4253C40.4865 58.8075 37.0621 59.5316 33.4607 65.9609C29.8748 59.5229 26.4522 58.7905 20.8286 63.3947C20.2278 56.1489 17.4259 54.2397 10.519 56.4255C12.7216 49.5239 10.8193 46.7174 3.57487 46.0991C8.19266 40.4866 7.46855 37.0622 1.03925 33.4608C7.47727 29.8749 8.20968 26.4523 3.60552 20.8287C10.8513 20.228 12.7605 17.426 10.5747 10.5191C17.4763 12.7217 20.2828 10.8195 20.9011 3.575C26.5136 8.19278 29.9379 7.46867 33.5394 1.03937C37.1252 7.47739 40.5479 8.2098 46.1715 3.60564C46.7722 10.8514 49.5741 12.7606 56.4811 10.5748C54.2785 17.4764 56.1807 20.2829 63.4252 20.9012C58.8074 26.5137 59.5315 29.9381 65.9608 33.5395Z" fill="white" stroke="#1D1D1D" stroke-miterlimit="10"/>
</svg>
