<svg width="473" height="465" viewBox="0 0 473 465" fill="none" xmlns="http://www.w3.org/2000/svg">
<path d="M457.759 221.307C416.974 247.912 413.723 270.811 446.666 305.759C399.179 313.059 387.885 332.409 405.478 376.931C358.968 365.593 341.345 379.426 340.608 427.466C301.483 399.613 279.244 405.965 258.467 450.006C231.862 409.22 208.963 405.97 174.015 438.912C166.715 391.426 147.365 380.132 102.843 397.725C114.181 351.215 100.348 333.591 52.3086 332.855C80.1614 293.73 73.8097 271.491 29.7684 250.714C70.5541 224.109 73.8045 201.21 40.8622 166.262C88.3486 158.962 99.6424 139.612 82.0498 95.09C128.56 106.428 146.183 92.5949 146.919 44.5552C186.045 72.408 208.284 66.0563 229.061 22.0151C255.666 62.8008 278.565 66.0511 313.513 33.1089C320.813 80.5953 340.163 91.889 384.685 74.2965C373.347 120.806 387.18 138.43 435.219 139.166C407.366 178.291 413.718 200.531 457.759 221.307Z" fill="#FFF042"/>
<path d="M443.231 214.1C402.446 240.705 399.195 263.604 432.138 298.552C384.651 305.852 373.357 325.202 390.95 369.724C344.44 358.386 326.817 372.219 326.08 420.258C286.955 392.406 264.716 398.757 243.939 442.799C217.334 402.013 194.435 398.763 159.487 431.705C152.187 384.218 132.837 372.925 88.3152 390.517C99.6532 344.007 85.8201 326.384 37.7805 325.648C65.6333 286.522 59.2816 264.283 15.2404 243.506C56.0261 216.901 59.2764 194.002 26.3342 159.054C73.8206 151.754 85.1143 132.404 67.5217 87.8825C114.031 99.2204 131.655 85.3874 132.391 37.3478C171.517 65.2006 193.756 58.8489 214.533 14.8076C241.138 55.5933 264.037 58.8437 298.985 25.9014C306.285 73.3878 325.634 84.6816 370.156 67.089C358.818 113.599 372.652 131.222 420.691 131.959C392.838 171.084 399.19 193.323 443.231 214.1Z" stroke="#1D1D1D" stroke-width="2" stroke-miterlimit="10"/>
</svg>
