<svg width="74" height="80" viewBox="0 0 74 80" fill="none" xmlns="http://www.w3.org/2000/svg">
<g clip-path="url(#clip0_97_5)">
<path d="M55.5145 52.6999C58.115 52.6999 61.3895 52.6449 63.7 55.7299C65.245 57.8499 65.485 60.2099 65.485 62.5704C65.485 72.3549 59.2245 72.5899 54.6895 72.6899H52.0895V52.6954L55.5145 52.6999ZM43.5145 45.5149V79.5299H56.915C60.4695 79.4794 69.965 79.2899 73.1 68.7899C73.53 67.3399 73.9645 65.1699 73.9645 62.2299C73.9645 57.4649 72.615 52.6954 69.1 49.5149C64.7645 45.6599 58.5 45.5649 54.355 45.5149H43.5145ZM0.410004 45.5149H10.19L17.515 57.1744C17.9046 56.2843 18.3732 55.4309 18.915 54.6244L24.74 45.5144H34.43L21.56 63.4394V79.5299H13.18V63.6794L0.410004 45.5099M72.5705 0.159912V19.1399C72.52 22.4199 72.47 25.6949 70.595 28.7799C66.93 34.6549 59.3655 34.9449 57.92 34.9449C55.37 34.9449 52.33 34.3199 50.02 33.1149C43.4695 29.7399 43.4695 23.7649 43.52 19.1399V0.159912H52.09V21.3599C52.09 23.0949 52.14 24.5399 52.72 25.5999C53.775 27.3799 56.09 27.9099 58.21 27.9099C63.9905 27.9099 63.9905 23.9599 64.045 21.3099V0.159912H72.5705ZM4.53 0.159912H31.99V6.80991L13.45 27.4749H31.9V34.1749H2.94V27.8149L21.78 6.80491H4.53V0.159912Z" fill="black"/>
</g>
<defs>
<clipPath id="clip0_97_5">
<rect width="74" height="80" fill="white"/>
</clipPath>
</defs>
</svg>
